<svg width="65" height="48" viewBox="0 0 65 48" fill="none" xmlns="http://www.w3.org/2000/svg">
<path d="M32.5525 28.4062C32.5525 34.5521 31.1671 39.2917 28.3963 42.625C25.6463 45.9583 21.7608 47.625 16.74 47.625C11.6775 47.625 7.76084 45.9479 4.99 42.5938C2.21917 39.2396 0.833752 34.5104 0.833752 28.4062V20.0938C0.833752 13.9479 2.20875 9.20833 4.95875 5.875C7.72959 2.54167 11.6358 0.875 16.6775 0.875C21.7192 0.875 25.6254 2.55208 28.3963 5.90625C31.1671 9.26042 32.5525 14 32.5525 20.125V28.4062ZM22.0213 18.75C22.0213 15.4792 21.5942 13.0417 20.74 11.4375C19.8858 9.8125 18.5317 9 16.6775 9C14.865 9 13.5421 9.75 12.7088 11.25C11.8963 12.75 11.4588 15.0208 11.3963 18.0625V29.6875C11.3963 33.0833 11.8233 35.5729 12.6775 37.1562C13.5317 38.7188 14.8858 39.5 16.74 39.5C18.5317 39.5 19.8546 38.7396 20.7088 37.2188C21.5629 35.6771 22.0004 33.2708 22.0213 30V18.75ZM64.885 47H54.3225V13.375L43.9475 16.4062V8.40625L63.9163 1.5H64.885V47Z" fill="white" fill-opacity="0.2"/>
</svg>
