<svg width="74" height="48" viewBox="0 0 74 48" fill="none" xmlns="http://www.w3.org/2000/svg">
<path d="M32.5525 28.4062C32.5525 34.5521 31.1671 39.2917 28.3963 42.625C25.6463 45.9583 21.7608 47.625 16.74 47.625C11.6775 47.625 7.76084 45.9479 4.99 42.5938C2.21917 39.2396 0.833752 34.5104 0.833752 28.4062V20.0938C0.833752 13.9479 2.20875 9.20833 4.95875 5.875C7.72959 2.54167 11.6358 0.875 16.6775 0.875C21.7192 0.875 25.6254 2.55208 28.3963 5.90625C31.1671 9.26042 32.5525 14 32.5525 20.125V28.4062ZM22.0213 18.75C22.0213 15.4792 21.5942 13.0417 20.74 11.4375C19.8858 9.8125 18.5317 9 16.6775 9C14.865 9 13.5421 9.75 12.7088 11.25C11.8963 12.75 11.4588 15.0208 11.3963 18.0625V29.6875C11.3963 33.0833 11.8233 35.5729 12.6775 37.1562C13.5317 38.7188 14.8858 39.5 16.74 39.5C18.5317 39.5 19.8546 38.7396 20.7088 37.2188C21.5629 35.6771 22.0004 33.2708 22.0213 30V18.75ZM73.2913 47H41.5413V40.125L56.1663 24.75C59.7704 20.6458 61.5725 17.3854 61.5725 14.9688C61.5725 13.0104 61.1454 11.5208 60.2913 10.5C59.4371 9.47917 58.1975 8.96875 56.5725 8.96875C54.9683 8.96875 53.6663 9.65625 52.6663 11.0312C51.6663 12.3854 51.1663 14.0833 51.1663 16.125H40.6038C40.6038 13.3333 41.3017 10.7604 42.6975 8.40625C44.0933 6.03125 46.0308 4.17708 48.51 2.84375C50.9892 1.51042 53.76 0.84375 56.8225 0.84375C61.7392 0.84375 65.5204 1.97917 68.1663 4.25C70.8329 6.52083 72.1663 9.78125 72.1663 14.0312C72.1663 15.8229 71.8329 17.5729 71.1663 19.2812C70.4996 20.9688 69.4579 22.75 68.0413 24.625C66.6454 26.4792 64.385 28.9688 61.26 32.0938L55.385 38.875H73.2913V47Z" fill="white" fill-opacity="0.2"/>
</svg>
