<svg width="74" height="48" viewBox="0 0 74 48" fill="none" xmlns="http://www.w3.org/2000/svg">
<path d="M32.5525 28.4062C32.5525 34.5521 31.1671 39.2917 28.3963 42.625C25.6463 45.9583 21.7608 47.625 16.74 47.625C11.6775 47.625 7.76084 45.9479 4.99 42.5938C2.21917 39.2396 0.833752 34.5104 0.833752 28.4062V20.0938C0.833752 13.9479 2.20875 9.20833 4.95875 5.875C7.72959 2.54167 11.6358 0.875 16.6775 0.875C21.7192 0.875 25.6254 2.55208 28.3963 5.90625C31.1671 9.26042 32.5525 14 32.5525 20.125V28.4062ZM22.0213 18.75C22.0213 15.4792 21.5942 13.0417 20.74 11.4375C19.8858 9.8125 18.5317 9 16.6775 9C14.865 9 13.5421 9.75 12.7088 11.25C11.8963 12.75 11.4588 15.0208 11.3963 18.0625V29.6875C11.3963 33.0833 11.8233 35.5729 12.6775 37.1562C13.5317 38.7188 14.8858 39.5 16.74 39.5C18.5317 39.5 19.8546 38.7396 20.7088 37.2188C21.5629 35.6771 22.0004 33.2708 22.0213 30V18.75ZM51.1663 19.8438H56.135C60.0725 19.8438 62.0413 17.9167 62.0413 14.0625C62.0413 12.5625 61.5725 11.3438 60.635 10.4062C59.6975 9.44792 58.3746 8.96875 56.6663 8.96875C55.2704 8.96875 54.0517 9.375 53.01 10.1875C51.9892 11 51.4788 12.0104 51.4788 13.2188H40.9475C40.9475 10.8229 41.6142 8.6875 42.9475 6.8125C44.2808 4.9375 46.1246 3.47917 48.4788 2.4375C50.8538 1.375 53.4579 0.84375 56.2913 0.84375C61.3538 0.84375 65.3329 2 68.2288 4.3125C71.1246 6.625 72.5725 9.80208 72.5725 13.8438C72.5725 15.8021 71.9683 17.6562 70.76 19.4062C69.5725 21.1354 67.8329 22.5417 65.5413 23.625C67.9579 24.5 69.8538 25.8333 71.2288 27.625C72.6038 29.3958 73.2913 31.5938 73.2913 34.2188C73.2913 38.2812 71.7288 41.5312 68.6038 43.9688C65.4788 46.4062 61.3746 47.625 56.2913 47.625C53.3121 47.625 50.5413 47.0625 47.9788 45.9375C45.4371 44.7917 43.51 43.2188 42.1975 41.2188C40.885 39.1979 40.2288 36.9062 40.2288 34.3438H50.8225C50.8225 35.7396 51.385 36.9479 52.51 37.9688C53.635 38.9896 55.0204 39.5 56.6663 39.5C58.5204 39.5 59.9996 38.9896 61.1038 37.9688C62.2079 36.9271 62.76 35.6042 62.76 34C62.76 31.7083 62.1871 30.0833 61.0413 29.125C59.8954 28.1667 58.3121 27.6875 56.2913 27.6875H51.1663V19.8438Z" fill="white" fill-opacity="0.2"/>
</svg>
