<svg width="74" height="48" viewBox="0 0 74 48" fill="none" xmlns="http://www.w3.org/2000/svg">
<path d="M32.5525 28.4062C32.5525 34.5521 31.1671 39.2917 28.3963 42.625C25.6463 45.9583 21.7608 47.625 16.74 47.625C11.6775 47.625 7.76084 45.9479 4.99 42.5938C2.21917 39.2396 0.833752 34.5104 0.833752 28.4062V20.0938C0.833752 13.9479 2.20875 9.20833 4.95875 5.875C7.72959 2.54167 11.6358 0.875 16.6775 0.875C21.7192 0.875 25.6254 2.55208 28.3963 5.90625C31.1671 9.26042 32.5525 14 32.5525 20.125V28.4062ZM22.0213 18.75C22.0213 15.4792 21.5942 13.0417 20.74 11.4375C19.8858 9.8125 18.5317 9 16.6775 9C14.865 9 13.5421 9.75 12.7088 11.25C11.8963 12.75 11.4588 15.0208 11.3963 18.0625V29.6875C11.3963 33.0833 11.8233 35.5729 12.6775 37.1562C13.5317 38.7188 14.8858 39.5 16.74 39.5C18.5317 39.5 19.8546 38.7396 20.7088 37.2188C21.5629 35.6771 22.0004 33.2708 22.0213 30V18.75ZM42.1663 24.75L44.9475 1.5H71.5413V9.6875H53.51L52.4788 18.7188C53.2288 18.2812 54.2079 17.8958 55.4163 17.5625C56.6454 17.2292 57.8433 17.0625 59.01 17.0625C63.5308 17.0625 66.9996 18.4062 69.4163 21.0938C71.8538 23.7604 73.0725 27.5104 73.0725 32.3438C73.0725 35.2604 72.4163 37.9062 71.1038 40.2812C69.8121 42.6354 67.9892 44.4479 65.635 45.7188C63.2808 46.9896 60.4996 47.625 57.2913 47.625C54.4371 47.625 51.76 47.0417 49.26 45.875C46.76 44.6875 44.8017 43.0729 43.385 41.0312C41.9683 38.9688 41.2704 36.6458 41.2913 34.0625H51.8538C51.9579 35.7292 52.4892 37.0521 53.4475 38.0312C54.4058 39.0104 55.6663 39.5 57.2288 39.5C60.7704 39.5 62.5413 36.875 62.5413 31.625C62.5413 26.7708 60.3746 24.3438 56.0413 24.3438C53.5829 24.3438 51.7496 25.1354 50.5413 26.7188L42.1663 24.75Z" fill="white" fill-opacity="0.2"/>
</svg>
