<svg width="75" height="48" viewBox="0 0 75 48" fill="none" xmlns="http://www.w3.org/2000/svg">
<path d="M32.5525 28.4062C32.5525 34.5521 31.1671 39.2917 28.3963 42.625C25.6463 45.9583 21.7608 47.625 16.74 47.625C11.6775 47.625 7.76084 45.9479 4.99 42.5938C2.21917 39.2396 0.833752 34.5104 0.833752 28.4062V20.0938C0.833752 13.9479 2.20875 9.20833 4.95875 5.875C7.72959 2.54167 11.6358 0.875 16.6775 0.875C21.7192 0.875 25.6254 2.55208 28.3963 5.90625C31.1671 9.26042 32.5525 14 32.5525 20.125V28.4062ZM22.0213 18.75C22.0213 15.4792 21.5942 13.0417 20.74 11.4375C19.8858 9.8125 18.5317 9 16.6775 9C14.865 9 13.5421 9.75 12.7088 11.25C11.8963 12.75 11.4588 15.0208 11.3963 18.0625V29.6875C11.3963 33.0833 11.8233 35.5729 12.6775 37.1562C13.5317 38.7188 14.8858 39.5 16.74 39.5C18.5317 39.5 19.8546 38.7396 20.7088 37.2188C21.5629 35.6771 22.0004 33.2708 22.0213 30V18.75ZM66.9788 0.84375V9.125H66.51C62.5725 9.125 59.3329 10.0729 56.7913 11.9688C54.2704 13.8438 52.7183 16.4583 52.135 19.8125C54.51 17.4792 57.51 16.3125 61.135 16.3125C65.0725 16.3125 68.2079 17.75 70.5413 20.625C72.8746 23.5 74.0413 27.2708 74.0413 31.9375C74.0413 34.8333 73.3538 37.4896 71.9788 39.9062C70.6246 42.3229 68.7183 44.2188 66.26 45.5938C63.8225 46.9479 61.1142 47.625 58.135 47.625C54.9058 47.625 52.0204 46.8958 49.4788 45.4375C46.9371 43.9583 44.9579 41.8542 43.5413 39.125C42.1246 36.3958 41.3954 33.25 41.3538 29.6875V25.4688C41.3538 20.7812 42.3538 16.5729 44.3538 12.8438C46.3746 9.09375 49.2496 6.15625 52.9788 4.03125C56.7079 1.90625 60.8433 0.84375 65.385 0.84375H66.9788ZM57.4788 24.375C56.0829 24.375 54.9163 24.6979 53.9788 25.3438C53.0413 25.9896 52.3433 26.7812 51.885 27.7188V30.875C51.885 36.625 53.8746 39.5 57.8538 39.5C59.4579 39.5 60.7913 38.7812 61.8538 37.3438C62.9371 35.9062 63.4788 34.1042 63.4788 31.9375C63.4788 29.7083 62.9267 27.8958 61.8225 26.5C60.7392 25.0833 59.2913 24.375 57.4788 24.375Z" fill="white" fill-opacity="0.2"/>
</svg>
