<svg width="39" height="39" viewBox="0 0 39 39" fill="none" xmlns="http://www.w3.org/2000/svg">
<g filter="url(#filter0_i)">
<path d="M20.9294 19.98C21.7437 20.1697 22.5671 19.662 22.7556 18.8373C22.8448 18.4474 22.7673 18.0614 22.5826 17.74L23.3164 14.7374L24.2329 14.9618C24.4292 15.0096 24.6366 14.9611 24.7922 14.8304C24.9479 14.7006 25.0307 14.5035 25.0167 14.3016L24.5984 8.16943C24.5882 8.02158 24.484 7.89676 24.3386 7.86092C24.1947 7.82603 24.0444 7.88824 23.9664 8.01529L20.7674 13.263C20.6618 13.4355 20.6453 13.6483 20.7219 13.8356C20.8009 14.0225 20.9613 14.1612 21.1591 14.2098L22.0751 14.4334L21.4532 16.9745L18.2543 16.2386L14.6502 10.9599C14.2194 10.3283 13.5771 10.285 12.8075 10.285C12.8075 18.8954 12.8075 18.3499 12.8075 22.2433H14.6362C14.6362 28.0593 14.6362 22.6129 14.6362 35.8934H10.9798V26.2789H9.64789V35.8935H5.99143C5.99143 22.6518 5.99143 28.0448 5.99143 22.2434H7.81914C7.81914 18.3519 7.81914 18.8966 7.81914 10.2851C6.93703 10.2851 6.21582 10.3833 5.84893 11.1868L0.768534 22.3146C0.41956 23.0799 0.755868 23.9829 1.52312 24.3321C2.28407 24.6809 3.18992 24.3474 3.54089 23.5789L5.99533 18.2014V20.9651H5.99143C5.28528 20.9651 4.71335 21.5373 4.71335 22.2434V35.8935C4.71335 36.5995 5.28536 37.1719 5.99143 37.1719C5.99143 38.1813 6.80958 39.0001 7.81914 39.0001C8.82823 39.0001 9.64789 38.1813 9.64789 37.1719C9.89116 37.1719 10.1195 37.1031 10.3144 36.9845C10.5083 37.103 10.735 37.1719 10.9798 37.1719C10.9798 38.1813 11.798 39.0001 12.8075 39.0001C13.8166 39.0001 14.6363 38.1813 14.6363 37.1719C15.3424 37.1719 15.9144 36.5995 15.9144 35.8935V22.2434C15.9144 21.5372 15.3424 20.9651 14.6363 20.9651H14.6323V16.3368L16.0738 18.4486C16.2891 18.7654 16.6181 18.989 16.9899 19.0744L20.9294 19.98Z" fill="#E4CD4F"/>
<path d="M11.5304 10.2849H9.09875V15.4255H11.5304V10.2849Z" fill="#E4CD4F"/>
<path d="M6.75624 6.07665C6.77671 8.02576 8.35964 9.59985 10.3144 9.59985C12.2681 9.59985 13.8526 8.02576 13.8729 6.07665C14.5622 6.05825 15.119 5.49939 15.119 4.80415C15.119 2.15518 12.9627 0 10.3144 0C7.66368 0 5.50826 2.15518 5.50826 4.80415C5.50826 5.49946 6.06562 6.05825 6.75624 6.07665ZM7.75768 2.38706V2.7491C7.75768 3.10197 8.04324 3.38818 8.39652 3.38818C8.74932 3.38818 9.03488 3.10197 9.03488 2.7491V1.52629C9.2404 1.44656 9.45316 1.38355 9.6746 1.34253V2.7491C9.6746 3.10197 9.96009 3.38818 10.3145 3.38818C10.6663 3.38818 10.9532 3.10197 10.9532 2.7491V1.34253C11.1747 1.38355 11.3875 1.44656 11.5915 1.52629V2.7491C11.5915 3.10197 11.877 3.38818 12.2313 3.38818C12.5841 3.38818 12.8711 3.10197 12.8711 2.7491V2.38706C13.4677 3.01865 13.8395 3.86556 13.8395 4.80415H6.78683C6.78683 3.86556 7.15914 3.01865 7.75768 2.38706Z" fill="#E4CD4F"/>
<path d="M27.5046 34.6877H19.6208C19.2665 34.6877 18.981 34.9733 18.981 35.3268V38.1843C18.981 38.5374 19.2665 38.8233 19.6208 38.8233H27.5046C27.856 38.8233 28.1429 38.5374 28.1429 38.1843V35.3268C28.1429 34.9733 27.856 34.6877 27.5046 34.6877Z" fill="#E4CD4F"/>
<path d="M37.7309 34.6877H29.847C29.4927 34.6877 29.2072 34.9733 29.2072 35.3268V38.1843C29.2072 38.5374 29.4926 38.8233 29.847 38.8233H37.7309C38.0822 38.8233 38.3692 38.5374 38.3692 38.1843V35.3268C38.3692 34.9733 38.0822 34.6877 37.7309 34.6877Z" fill="#E4CD4F"/>
<path d="M37.7309 24.4604H29.847C29.4927 24.4604 29.2072 24.7467 29.2072 25.0999V27.957C29.2072 28.3109 29.4926 28.5964 29.847 28.5964H37.7309C38.0822 28.5964 38.3692 28.3109 38.3692 27.957V25.0999C38.3692 24.7467 38.0822 24.4604 37.7309 24.4604Z" fill="#E4CD4F"/>
<path d="M27.5046 24.4604H19.6208C19.2665 24.4604 18.981 24.7467 18.981 25.0999V27.957C18.981 28.3109 19.2665 28.5964 19.6208 28.5964H27.5046C27.856 28.5964 28.1429 28.3109 28.1429 27.957V25.0999C28.1429 24.7467 27.856 24.4604 27.5046 24.4604Z" fill="#E4CD4F"/>
<path d="M24.0939 30.2133V33.0712C24.0939 33.4242 24.3794 33.7102 24.7337 33.7102H32.6175C32.9693 33.7102 33.2563 33.4242 33.2563 33.0712V30.2133C33.2563 29.8602 32.9693 29.574 32.6175 29.574H24.7337C24.3794 29.574 24.0939 29.8602 24.0939 30.2133Z" fill="#E4CD4F"/>
<path d="M24.0939 19.9869V22.8441C24.0939 23.198 24.3794 23.4834 24.7337 23.4834H32.6175C32.9693 23.4834 33.2563 23.198 33.2563 22.8441V19.9869C33.2563 19.6339 32.9693 19.3477 32.6175 19.3477H24.7337C24.3794 19.3477 24.0939 19.6339 24.0939 19.9869Z" fill="#E4CD4F"/>
<path d="M37.7308 29.574H34.7457C34.3929 29.574 34.1074 29.8602 34.1074 30.2133V33.0712C34.1074 33.4242 34.3928 33.7102 34.7457 33.7102H37.7308C38.0822 33.7102 38.3692 33.4242 38.3692 33.0712V30.2133C38.3692 29.8602 38.0822 29.574 37.7308 29.574Z" fill="#E4CD4F"/>
<path d="M37.7308 19.3477H34.7457C34.3929 19.3477 34.1074 19.6339 34.1074 19.9869V22.8441C34.1074 23.198 34.3928 23.4834 34.7457 23.4834H37.7308C38.0822 23.4834 38.3692 23.198 38.3692 22.8441V19.9869C38.3692 19.6339 38.0822 19.3477 37.7308 19.3477Z" fill="#E4CD4F"/>
</g>
<defs>
<filter id="filter0_i" x="0" y="0" width="39" height="43" filterUnits="userSpaceOnUse" color-interpolation-filters="sRGB">
<feFlood flood-opacity="0" result="BackgroundImageFix"/>
<feBlend mode="normal" in="SourceGraphic" in2="BackgroundImageFix" result="shape"/>
<feColorMatrix in="SourceAlpha" type="matrix" values="0 0 0 0 0 0 0 0 0 0 0 0 0 0 0 0 0 0 127 0" result="hardAlpha"/>
<feOffset dy="4"/>
<feGaussianBlur stdDeviation="2"/>
<feComposite in2="hardAlpha" operator="arithmetic" k2="-1" k3="1"/>
<feColorMatrix type="matrix" values="0 0 0 0 0 0 0 0 0 0 0 0 0 0 0 0 0 0 0.25 0"/>
<feBlend mode="normal" in2="shape" result="effect1_innerShadow"/>
</filter>
</defs>
</svg>
