<svg width="39" height="39" viewBox="0 0 39 39" fill="none" xmlns="http://www.w3.org/2000/svg">
<g filter="url(#filter0_i)">
<path d="M37.9938 12.2733C36.6574 10.9368 34.4828 10.9369 33.1459 12.2737C32.7347 12.6852 30.1094 15.3126 29.7084 15.714V6.6594C29.7084 5.74382 29.3518 4.88307 28.7044 4.23569L25.4728 1.00395C24.8254 0.356484 23.9646 0 23.049 0H3.42908C1.53902 0 0.00134277 1.53768 0.00134277 3.42773V35.5723C0.00134277 37.4623 1.53902 39 3.42908 39H26.2806C28.1707 39 29.7084 37.4623 29.7084 35.5723V25.4133L37.9937 17.1209C39.3334 15.7814 39.3337 13.6131 37.9938 12.2733ZM22.853 2.28516C23.0689 2.28516 23.4848 2.24776 23.8569 2.61978L27.0886 5.85152C27.4512 6.21418 27.4233 6.61157 27.4233 6.85547H22.853V2.28516ZM27.4232 35.5723C27.4232 36.2023 26.9107 36.7148 26.2806 36.7148H3.42908C2.79906 36.7148 2.2865 36.2023 2.2865 35.5723V3.42773C2.2865 2.79772 2.79906 2.28516 3.42908 2.28516H20.5678V7.99805C20.5678 8.62906 21.0793 9.14062 21.7103 9.14062H27.4232V18.0012C27.4232 18.0012 24.0523 21.375 24.0522 21.375L22.4371 22.9902C22.3117 23.1156 22.2171 23.2685 22.161 23.4368L20.5451 28.2844C20.4082 28.6949 20.5151 29.1476 20.8212 29.4536C21.1276 29.76 21.5805 29.8664 21.9904 29.7297L26.838 28.1138C27.0063 28.0578 27.1592 27.9632 27.2846 27.8378L27.4232 27.6991V35.5723ZM24.8608 23.7982L26.4766 25.414L25.8594 26.0312L23.4357 26.8391L24.2436 24.4153L24.8608 23.7982ZM28.0922 23.7978L26.4763 22.1819C27.3368 21.3208 31.1582 17.4961 31.9687 16.6849L33.5845 18.3007L28.0922 23.7978ZM36.3776 15.5054L35.1998 16.6842L33.5839 15.0684L34.7621 13.8892C35.2079 13.4437 35.9326 13.4437 36.3781 13.8892C36.8234 14.3348 36.8258 15.0571 36.3776 15.5054Z" fill="#E4CD4F"/>
<path d="M21.7103 11.4258H5.71423C5.08323 11.4258 4.57166 11.9374 4.57166 12.5684C4.57166 13.1994 5.08323 13.7109 5.71423 13.7109H21.7103C22.3413 13.7109 22.8529 13.1994 22.8529 12.5684C22.8529 11.9374 22.3413 11.4258 21.7103 11.4258Z" fill="#E4CD4F"/>
<path d="M17.14 15.9961H5.71423C5.08323 15.9961 4.57166 16.5077 4.57166 17.1387C4.57166 17.7697 5.08323 18.2812 5.71423 18.2812H17.14C17.771 18.2812 18.2826 17.7697 18.2826 17.1387C18.2826 16.5077 17.771 15.9961 17.14 15.9961Z" fill="#E4CD4F"/>
<path d="M17.14 20.5664H5.71423C5.08323 20.5664 4.57166 21.078 4.57166 21.709C4.57166 22.34 5.08323 22.8516 5.71423 22.8516H17.14C17.771 22.8516 18.2826 22.34 18.2826 21.709C18.2826 21.078 17.771 20.5664 17.14 20.5664Z" fill="#E4CD4F"/>
<path d="M17.14 25.1367H5.71423C5.08323 25.1367 4.57166 25.6483 4.57166 26.2793C4.57166 26.9103 5.08323 27.4219 5.71423 27.4219H17.14C17.771 27.4219 18.2826 26.9103 18.2826 26.2793C18.2826 25.6483 17.771 25.1367 17.14 25.1367Z" fill="#E4CD4F"/>
<path d="M21.7103 32.1445H14.8549C14.2239 32.1445 13.7123 32.6561 13.7123 33.2871C13.7123 33.9181 14.2239 34.4297 14.8549 34.4297H21.7103C22.3413 34.4297 22.8529 33.9181 22.8529 33.2871C22.8529 32.6561 22.3413 32.1445 21.7103 32.1445Z" fill="#E4CD4F"/>
</g>
<defs>
<filter id="filter0_i" x="0" y="0" width="39" height="43" filterUnits="userSpaceOnUse" color-interpolation-filters="sRGB">
<feFlood flood-opacity="0" result="BackgroundImageFix"/>
<feBlend mode="normal" in="SourceGraphic" in2="BackgroundImageFix" result="shape"/>
<feColorMatrix in="SourceAlpha" type="matrix" values="0 0 0 0 0 0 0 0 0 0 0 0 0 0 0 0 0 0 127 0" result="hardAlpha"/>
<feOffset dy="4"/>
<feGaussianBlur stdDeviation="2"/>
<feComposite in2="hardAlpha" operator="arithmetic" k2="-1" k3="1"/>
<feColorMatrix type="matrix" values="0 0 0 0 0 0 0 0 0 0 0 0 0 0 0 0 0 0 0.25 0"/>
<feBlend mode="normal" in2="shape" result="effect1_innerShadow"/>
</filter>
</defs>
</svg>
