<svg width="39" height="39" viewBox="0 0 39 39" fill="none" xmlns="http://www.w3.org/2000/svg">
<path d="M38.6666 18.6318L26.9672 5.6325C26.7176 5.35692 26.3692 5.20093 26 5.20093H18.2005C17.6883 5.20093 17.2229 5.50251 17.0123 5.97049C16.8043 6.44106 16.8901 6.98963 17.2333 7.36921L28.1501 19.5002L17.2333 31.6285C16.8901 32.0107 16.8017 32.5592 17.0123 33.0272C17.2229 33.4978 17.6883 33.7994 18.2005 33.7994H26C26.3692 33.7994 26.7176 33.6408 26.9672 33.3704L38.6666 20.3711C39.1111 19.8771 39.1111 19.1232 38.6666 18.6318Z" fill="white" fill-opacity="0.2"/>
<path d="M21.7675 18.6318L10.0681 5.6325C9.81853 5.35692 9.47015 5.20093 9.10097 5.20093H1.30139C0.789219 5.20093 0.323844 5.50251 0.113256 5.97049C-0.094733 6.44106 -0.00893761 6.98963 0.334244 7.36921L11.2511 19.5002L0.334244 31.6285C-0.00893761 32.0107 -0.0973328 32.5592 0.113256 33.0272C0.323844 33.4978 0.789219 33.7994 1.30139 33.7994H9.10097C9.47015 33.7994 9.81853 33.6408 10.0681 33.3704L21.7675 20.3711C22.2121 19.8771 22.2121 19.1232 21.7675 18.6318Z" fill="white" fill-opacity="0.2"/>
</svg>
