<svg width="39" height="39" viewBox="0 0 39 39" fill="none" xmlns="http://www.w3.org/2000/svg">
<g clip-path="url(#clip0)" filter="url(#filter0_i)">
<path d="M38.5224 17.1664L20.3901 1.6244C19.8782 1.18555 19.1224 1.18529 18.6101 1.6244L0.477573 17.1664C0.0430557 17.539 -0.113601 18.1426 0.0849448 18.6793C0.283491 19.2161 0.795352 19.5723 1.36748 19.5723H5.18044V36.3373C5.18044 37.0925 5.79289 37.7049 6.5482 37.7049H32.4517C33.207 37.7049 33.8192 37.0925 33.8192 36.3373V19.5723H37.6324C38.2045 19.5723 38.7165 19.2161 38.9149 18.6793C39.1136 18.1425 38.9569 17.539 38.5224 17.1664ZM32.4517 16.8372C31.6963 16.8372 31.0842 17.4495 31.0842 18.2048V34.9696H7.91583V18.2048C7.91583 17.4495 7.30365 16.8372 6.54833 16.8372H5.06436L19.5002 4.46393L33.9355 16.8372H32.4517Z" fill="#E4CD4F"/>
<path d="M12.0581 21.552C12.0581 23.2835 13.231 25.2444 15.5443 27.381C17.1314 28.8464 18.6999 29.8857 18.7659 29.9293C18.9944 30.0799 19.2565 30.1553 19.5188 30.1553C19.7812 30.1553 20.0435 30.0801 20.272 29.9293C20.338 29.8857 21.9062 28.8464 23.4928 27.3806C25.8059 25.2442 26.9785 23.2833 26.9785 21.552C26.9785 19.0245 24.9988 16.9683 22.5657 16.9683C21.3852 16.9683 20.3118 17.4518 19.5188 18.2379C18.7261 17.4518 17.6527 16.9683 16.4725 16.9683C14.0383 16.9683 12.0581 19.0245 12.0581 21.552ZM18.1513 21.552C18.1513 22.3073 18.7635 22.9197 19.5188 22.9197C20.2741 22.9197 20.8863 22.3073 20.8863 21.552C20.8863 20.5325 21.6395 19.7034 22.5657 19.7034C23.4908 19.7034 24.2432 20.5325 24.2432 21.552C24.2432 23.0757 21.6854 25.5415 19.5178 27.1223C17.3506 25.5447 14.7931 23.0809 14.7931 21.552C14.7931 20.5325 15.5466 19.7034 16.4725 19.7034C17.3981 19.7034 18.1513 20.5326 18.1513 21.552Z" fill="#E4CD4F"/>
</g>
<defs>
<filter id="filter0_i" x="0" y="0" width="39" height="43" filterUnits="userSpaceOnUse" color-interpolation-filters="sRGB">
<feFlood flood-opacity="0" result="BackgroundImageFix"/>
<feBlend mode="normal" in="SourceGraphic" in2="BackgroundImageFix" result="shape"/>
<feColorMatrix in="SourceAlpha" type="matrix" values="0 0 0 0 0 0 0 0 0 0 0 0 0 0 0 0 0 0 127 0" result="hardAlpha"/>
<feOffset dy="4"/>
<feGaussianBlur stdDeviation="2"/>
<feComposite in2="hardAlpha" operator="arithmetic" k2="-1" k3="1"/>
<feColorMatrix type="matrix" values="0 0 0 0 0 0 0 0 0 0 0 0 0 0 0 0 0 0 0.25 0"/>
<feBlend mode="normal" in2="shape" result="effect1_innerShadow"/>
</filter>
<clipPath id="clip0">
<rect width="39" height="39" fill="white"/>
</clipPath>
</defs>
</svg>
