<svg width="256" height="52" viewBox="0 0 256 52" fill="none" xmlns="http://www.w3.org/2000/svg">
<path d="M18.7734 10.9922H6.97852V17.1973H12.2168C14.0918 17.1973 15.7266 17.5195 17.1211 18.1641C18.5156 18.8086 19.5762 19.7227 20.3027 20.9062C21.0293 22.0898 21.3926 23.4609 21.3926 25.0195C21.3926 27.4102 20.5781 29.332 18.9492 30.7852C17.332 32.2383 15.123 32.9766 12.3223 33H2.53125V7.40625H18.7734V10.9922ZM6.97852 20.7656V29.4492H12.1992C13.6992 29.4492 14.8652 29.0449 15.6973 28.2363C16.541 27.416 16.9629 26.332 16.9629 24.9844C16.9629 23.6953 16.5527 22.6758 15.7324 21.9258C14.9121 21.1758 13.7754 20.7891 12.3223 20.7656H6.97852ZM47.7091 7.40625V33H43.2795V10.9922H35.4396L34.9826 20.8887C34.8068 23.9824 34.4259 26.3848 33.84 28.0957C33.2658 29.7949 32.4279 31.0371 31.3263 31.8223C30.2248 32.6074 28.7482 33 26.8966 33H25.7716V29.4492L26.4748 29.3965C27.4943 29.3027 28.2795 28.9453 28.8302 28.3242C29.3927 27.7031 29.8146 26.7656 30.0959 25.5117C30.3888 24.2461 30.5939 22.3887 30.7111 19.9395L31.2033 7.40625H47.7091ZM70.053 27.041H60.139L58.0648 33H53.4417L63.1097 7.40625H67.0999L76.7855 33H72.1448L70.053 27.041ZM61.387 23.4551H68.805L65.096 12.8379L61.387 23.4551ZM98.4087 10.9922H86.5962V33H82.1665V7.40625H98.4087V10.9922ZM123.688 20.8711C123.688 23.3789 123.255 25.582 122.387 27.4805C121.52 29.3672 120.278 30.8203 118.661 31.8398C117.055 32.8477 115.204 33.3516 113.106 33.3516C111.032 33.3516 109.18 32.8477 107.551 31.8398C105.934 30.8203 104.68 29.373 103.79 27.498C102.911 25.623 102.465 23.4609 102.454 21.0117V19.5703C102.454 17.0742 102.893 14.8711 103.772 12.9609C104.663 11.0508 105.911 9.5918 107.516 8.58398C109.133 7.56445 110.985 7.05469 113.071 7.05469C115.157 7.05469 117.003 7.55859 118.608 8.56641C120.225 9.5625 121.473 11.0039 122.352 12.8906C123.231 14.7656 123.676 16.9512 123.688 19.4473V20.8711ZM119.241 19.5352C119.241 16.6992 118.702 14.5254 117.624 13.0137C116.557 11.502 115.04 10.7461 113.071 10.7461C111.149 10.7461 109.643 11.502 108.553 13.0137C107.475 14.5137 106.924 16.6406 106.901 19.3945V20.8711C106.901 23.6836 107.446 25.8574 108.536 27.3926C109.637 28.9277 111.161 29.6953 113.106 29.6953C115.075 29.6953 116.587 28.9453 117.641 27.4453C118.708 25.9453 119.241 23.7539 119.241 20.8711V19.5352ZM149.987 24.668C149.729 27.3984 148.721 29.5312 146.964 31.0664C145.206 32.5898 142.868 33.3516 139.95 33.3516C137.911 33.3516 136.112 32.8711 134.554 31.9102C133.007 30.9375 131.811 29.5605 130.968 27.7793C130.124 25.998 129.684 23.9297 129.649 21.5742V19.1836C129.649 16.7695 130.077 14.6426 130.932 12.8027C131.788 10.9629 133.012 9.54492 134.606 8.54883C136.212 7.55273 138.063 7.05469 140.161 7.05469C142.985 7.05469 145.259 7.82227 146.981 9.35742C148.704 10.8926 149.706 13.0605 149.987 15.8613H145.557C145.346 14.0215 144.807 12.6973 143.94 11.8887C143.085 11.0684 141.825 10.6582 140.161 10.6582C138.227 10.6582 136.739 11.3672 135.696 12.7852C134.665 14.1914 134.137 16.2598 134.114 18.9902V21.2578C134.114 24.0234 134.606 26.1328 135.591 27.5859C136.587 29.0391 138.04 29.7656 139.95 29.7656C141.696 29.7656 143.009 29.373 143.887 28.5879C144.766 27.8027 145.323 26.4961 145.557 24.668H149.987ZM174.282 10.9922H166.302V33H161.89V10.9922H153.979V7.40625H174.282V10.9922ZM184.444 23.4902V33H179.997V7.40625H189.788C192.648 7.40625 194.915 8.15039 196.591 9.63867C198.278 11.127 199.122 13.0957 199.122 15.5449C199.122 18.0527 198.296 20.0039 196.644 21.3984C195.003 22.793 192.7 23.4902 189.735 23.4902H184.444ZM184.444 19.9219H189.788C191.37 19.9219 192.577 19.5527 193.409 18.8145C194.241 18.0645 194.657 16.9863 194.657 15.5801C194.657 14.1973 194.235 13.0957 193.392 12.2754C192.548 11.4434 191.388 11.0156 189.911 10.9922H184.444V19.9219ZM225.79 20.8711C225.79 23.3789 225.357 25.582 224.49 27.4805C223.622 29.3672 222.38 30.8203 220.763 31.8398C219.158 32.8477 217.306 33.3516 215.208 33.3516C213.134 33.3516 211.283 32.8477 209.654 31.8398C208.036 30.8203 206.783 29.373 205.892 27.498C205.013 25.623 204.568 23.4609 204.556 21.0117V19.5703C204.556 17.0742 204.995 14.8711 205.874 12.9609C206.765 11.0508 208.013 9.5918 209.618 8.58398C211.236 7.56445 213.087 7.05469 215.173 7.05469C217.259 7.05469 219.105 7.55859 220.71 8.56641C222.327 9.5625 223.575 11.0039 224.454 12.8906C225.333 14.7656 225.779 16.9512 225.79 19.4473V20.8711ZM221.343 19.5352C221.343 16.6992 220.804 14.5254 219.726 13.0137C218.659 11.502 217.142 10.7461 215.173 10.7461C213.251 10.7461 211.745 11.502 210.656 13.0137C209.577 14.5137 209.027 16.6406 209.003 19.3945V20.8711C209.003 23.6836 209.548 25.8574 210.638 27.3926C211.74 28.9277 213.263 29.6953 215.208 29.6953C217.177 29.6953 218.689 28.9453 219.743 27.4453C220.81 25.9453 221.343 23.7539 221.343 20.8711V19.5352ZM248.24 7.40625H252.687V33H248.24V14.7715L237.007 33H232.56V7.40625H237.007V25.6523L248.24 7.40625ZM248.38 0.884766C248.38 2.36133 247.865 3.55664 246.833 4.4707C245.802 5.38477 244.425 5.8418 242.703 5.8418C240.98 5.8418 239.603 5.38477 238.572 4.4707C237.54 3.55664 237.025 2.36133 237.025 0.884766H240.224C240.224 1.6582 240.441 2.26172 240.874 2.69531C241.32 3.11719 241.929 3.32812 242.703 3.32812C243.476 3.32812 244.08 3.11719 244.513 2.69531C244.947 2.26172 245.164 1.6582 245.164 0.884766H248.38Z" fill="white"/>
<path d="M6.34375 47.3672C6.99479 47.3672 7.53906 47.1849 7.97656 46.8203C8.41927 46.4505 8.65885 45.974 8.69531 45.3906H9.59375C9.56771 45.9062 9.40625 46.3776 9.10938 46.8047C8.8125 47.2266 8.41667 47.5573 7.92188 47.7969C7.43229 48.0365 6.90625 48.1562 6.34375 48.1562C5.23438 48.1562 4.35417 47.7708 3.70312 47C3.05729 46.2292 2.73438 45.1927 2.73438 43.8906V43.6094C2.73438 42.776 2.88021 42.0391 3.17188 41.3984C3.46354 40.7578 3.88021 40.263 4.42188 39.9141C4.96875 39.5651 5.60677 39.3906 6.33594 39.3906C7.26302 39.3906 8.02604 39.6667 8.625 40.2188C9.22917 40.7708 9.55208 41.4974 9.59375 42.3984H8.69531C8.65365 41.737 8.41406 41.2031 7.97656 40.7969C7.54427 40.3906 6.9974 40.1875 6.33594 40.1875C5.49219 40.1875 4.83594 40.4922 4.36719 41.1016C3.90365 41.7109 3.67188 42.5651 3.67188 43.6641V43.9375C3.67188 45.0156 3.90365 45.8568 4.36719 46.4609C4.83594 47.0651 5.49479 47.3672 6.34375 47.3672ZM17.8591 40.3438H14.7809V48H13.8434V40.3438H10.8825V39.5469H17.8591V40.3438ZM26.515 43.8594C26.515 45.1771 26.2233 46.224 25.64 47C25.0567 47.7708 24.2754 48.1562 23.2962 48.1562C22.14 48.1562 21.2546 47.75 20.64 46.9375V51.25H19.7103V39.5469H20.5775L20.6244 40.7422C21.2337 39.8411 22.1166 39.3906 23.2728 39.3906C24.2832 39.3906 25.0749 39.7734 25.6478 40.5391C26.2259 41.3047 26.515 42.3672 26.515 43.7266V43.8594ZM25.5775 43.6953C25.5775 42.6172 25.3561 41.7656 24.9134 41.1406C24.4707 40.5156 23.8535 40.2031 23.0619 40.2031C22.489 40.2031 21.9968 40.3411 21.5853 40.6172C21.1739 40.8932 20.8587 41.2943 20.64 41.8203V45.875C20.864 46.3594 21.1843 46.7292 21.6009 46.9844C22.0176 47.2396 22.5098 47.3672 23.0775 47.3672C23.864 47.3672 24.4759 47.0547 24.9134 46.4297C25.3561 45.7995 25.5775 44.888 25.5775 43.6953ZM28.3975 43.6484C28.3975 42.8359 28.5537 42.1042 28.8662 41.4531C29.184 40.8021 29.6293 40.2969 30.2022 39.9375C30.7803 39.5729 31.434 39.3906 32.1631 39.3906C33.2881 39.3906 34.1996 39.7865 34.8975 40.5781C35.5954 41.3646 35.9444 42.4089 35.9444 43.7109V43.9062C35.9444 44.724 35.7855 45.4609 35.4678 46.1172C35.1553 46.7682 34.7126 47.2708 34.1397 47.625C33.5668 47.9792 32.9131 48.1562 32.1787 48.1562C31.059 48.1562 30.1475 47.763 29.4444 46.9766C28.7465 46.1849 28.3975 45.138 28.3975 43.8359V43.6484ZM29.335 43.9062C29.335 44.9167 29.5954 45.7474 30.1162 46.3984C30.6423 47.0443 31.3298 47.3672 32.1787 47.3672C33.0225 47.3672 33.7048 47.0443 34.2256 46.3984C34.7517 45.7474 35.0147 44.8906 35.0147 43.8281V43.6484C35.0147 43.0026 34.8949 42.4115 34.6553 41.875C34.4157 41.3385 34.0798 40.9245 33.6475 40.6328C33.2152 40.3359 32.7204 40.1875 32.1631 40.1875C31.3298 40.1875 30.6501 40.5156 30.1241 41.1719C29.598 41.8229 29.335 42.6771 29.335 43.7344V43.9062ZM43.7566 39.5469H44.6941V48H43.7566V41.0547L39.1941 48H38.2644V39.5469H39.1941V46.5L43.7566 39.5469ZM53.5922 40.3438H50.5141V48H49.5766V40.3438H46.6156V39.5469H53.5922V40.3438ZM58.0997 48.1562C57.3809 48.1562 56.7299 47.9792 56.1466 47.625C55.5684 47.2708 55.1179 46.7786 54.795 46.1484C54.4721 45.513 54.3106 44.8021 54.3106 44.0156V43.6797C54.3106 42.8672 54.4669 42.1354 54.7794 41.4844C55.0971 40.8333 55.5372 40.3229 56.0997 39.9531C56.6622 39.5781 57.2716 39.3906 57.9278 39.3906C58.9539 39.3906 59.7664 39.7422 60.3653 40.4453C60.9695 41.1432 61.2716 42.099 61.2716 43.3125V43.8359H55.2403V44.0156C55.2403 44.974 55.5137 45.7734 56.0606 46.4141C56.6127 47.0495 57.3054 47.3672 58.1387 47.3672C58.6387 47.3672 59.0789 47.276 59.4591 47.0938C59.8445 46.9115 60.1934 46.6198 60.5059 46.2188L61.0919 46.6641C60.4044 47.6589 59.407 48.1562 58.0997 48.1562ZM57.9278 40.1875C57.2247 40.1875 56.6309 40.4453 56.1466 40.9609C55.6674 41.4766 55.3757 42.1693 55.2716 43.0391H60.3419V42.9375C60.3158 42.125 60.0841 41.4635 59.6466 40.9531C59.2091 40.4427 58.6361 40.1875 57.9278 40.1875ZM69.9119 39.5469V48H68.9744V40.3516H65.5134L65.365 43.5156C65.3025 44.6875 65.1853 45.5833 65.0134 46.2031C64.8416 46.8177 64.5864 47.2708 64.2478 47.5625C63.9093 47.8542 63.4588 48 62.8963 48H62.5369V47.1719L62.8259 47.1562C63.3624 47.1458 63.7478 46.8854 63.9822 46.375C64.2166 45.8646 64.3702 44.9531 64.4431 43.6406L64.615 39.5469H69.9119ZM73.7787 42.6172H76.2162C76.8412 42.6172 77.3881 42.7318 77.8569 42.9609C78.3308 43.1849 78.6876 43.4974 78.9272 43.8984C79.172 44.2995 79.2944 44.7656 79.2944 45.2969C79.2944 46.1146 79.0131 46.7708 78.4506 47.2656C77.8933 47.7552 77.1381 48 76.185 48H72.8491V39.5469H73.7787V42.6172ZM73.7787 43.4141V47.2109H76.2006C76.8725 47.2109 77.3985 47.0417 77.7787 46.7031C78.1642 46.3646 78.3569 45.901 78.3569 45.3125C78.3569 44.75 78.1694 44.2969 77.7944 43.9531C77.4246 43.6042 76.9168 43.4245 76.2709 43.4141H73.7787ZM84.755 47.3672C85.406 47.3672 85.9503 47.1849 86.3878 46.8203C86.8305 46.4505 87.0701 45.974 87.1066 45.3906H88.005C87.979 45.9062 87.8175 46.3776 87.5206 46.8047C87.2237 47.2266 86.8279 47.5573 86.3331 47.7969C85.8435 48.0365 85.3175 48.1562 84.755 48.1562C83.6456 48.1562 82.7654 47.7708 82.1144 47C81.4685 46.2292 81.1456 45.1927 81.1456 43.8906V43.6094C81.1456 42.776 81.2915 42.0391 81.5831 41.3984C81.8748 40.7578 82.2915 40.263 82.8331 39.9141C83.38 39.5651 84.018 39.3906 84.7472 39.3906C85.6743 39.3906 86.4373 39.6667 87.0362 40.2188C87.6404 40.7708 87.9633 41.4974 88.005 42.3984H87.1066C87.0649 41.737 86.8253 41.2031 86.3878 40.7969C85.9555 40.3906 85.4086 40.1875 84.7472 40.1875C83.9034 40.1875 83.2472 40.4922 82.7784 41.1016C82.3149 41.7109 82.0831 42.5651 82.0831 43.6641V43.9375C82.0831 45.0156 82.3149 45.8568 82.7784 46.4609C83.2472 47.0651 83.906 47.3672 84.755 47.3672ZM96.2703 40.3438H93.1922V48H92.2547V40.3438H89.2937V39.5469H96.2703V40.3438ZM98.2309 48V39.5469H101.332C102.405 39.5469 103.228 39.7396 103.801 40.125C104.374 40.5052 104.661 41.0651 104.661 41.8047C104.661 42.2266 104.533 42.6042 104.278 42.9375C104.023 43.2656 103.65 43.5052 103.161 43.6562C103.713 43.7604 104.155 43.9974 104.489 44.3672C104.827 44.737 104.997 45.1667 104.997 45.6562C104.997 46.401 104.721 46.9792 104.168 47.3906C103.622 47.7969 102.846 48 101.84 48H98.2309ZM99.1606 44.1094V47.2188H101.872C102.575 47.2188 103.116 47.0833 103.497 46.8125C103.877 46.5417 104.067 46.151 104.067 45.6406C104.067 45.1719 103.877 44.7995 103.497 44.5234C103.116 44.2474 102.575 44.1094 101.872 44.1094H99.1606ZM99.1606 43.3281H101.528C102.997 43.3073 103.731 42.8073 103.731 41.8281C103.731 41.3125 103.528 40.9375 103.122 40.7031C102.721 40.4635 102.124 40.3438 101.332 40.3438H99.1606V43.3281ZM106.887 43.6484C106.887 42.8359 107.043 42.1042 107.356 41.4531C107.673 40.8021 108.119 40.2969 108.692 39.9375C109.27 39.5729 109.923 39.3906 110.652 39.3906C111.777 39.3906 112.689 39.7865 113.387 40.5781C114.085 41.3646 114.434 42.4089 114.434 43.7109V43.9062C114.434 44.724 114.275 45.4609 113.957 46.1172C113.645 46.7682 113.202 47.2708 112.629 47.625C112.056 47.9792 111.402 48.1562 110.668 48.1562C109.548 48.1562 108.637 47.763 107.934 46.9766C107.236 46.1849 106.887 45.138 106.887 43.8359V43.6484ZM107.824 43.9062C107.824 44.9167 108.085 45.7474 108.606 46.3984C109.132 47.0443 109.819 47.3672 110.668 47.3672C111.512 47.3672 112.194 47.0443 112.715 46.3984C113.241 45.7474 113.504 44.8906 113.504 43.8281V43.6484C113.504 43.0026 113.384 42.4115 113.145 41.875C112.905 41.3385 112.569 40.9245 112.137 40.6328C111.705 40.3359 111.21 40.1875 110.652 40.1875C109.819 40.1875 109.139 40.5156 108.613 41.1719C108.087 41.8229 107.824 42.6771 107.824 43.7344V43.9062ZM126.457 39.5469H127.394V48H126.457V41.0547L121.894 48H120.964V39.5469H121.894V46.5L126.457 39.5469ZM140.925 48H139.987V40.3516H135.432V48H134.495V39.5469H140.925V48ZM150.549 43.8594C150.549 45.1771 150.258 46.224 149.674 47C149.091 47.7708 148.31 48.1562 147.331 48.1562C146.174 48.1562 145.289 47.75 144.674 46.9375V51.25H143.745V39.5469H144.612L144.659 40.7422C145.268 39.8411 146.151 39.3906 147.307 39.3906C148.318 39.3906 149.109 39.7734 149.682 40.5391C150.26 41.3047 150.549 42.3672 150.549 43.7266V43.8594ZM149.612 43.6953C149.612 42.6172 149.391 41.7656 148.948 41.1406C148.505 40.5156 147.888 40.2031 147.096 40.2031C146.523 40.2031 146.031 40.3411 145.62 40.6172C145.208 40.8932 144.893 41.2943 144.674 41.8203V45.875C144.898 46.3594 145.219 46.7292 145.635 46.9844C146.052 47.2396 146.544 47.3672 147.112 47.3672C147.898 47.3672 148.51 47.0547 148.948 46.4297C149.391 45.7995 149.612 44.888 149.612 43.6953ZM152.432 43.6484C152.432 42.8359 152.588 42.1042 152.901 41.4531C153.218 40.8021 153.664 40.2969 154.237 39.9375C154.815 39.5729 155.468 39.3906 156.197 39.3906C157.322 39.3906 158.234 39.7865 158.932 40.5781C159.63 41.3646 159.979 42.4089 159.979 43.7109V43.9062C159.979 44.724 159.82 45.4609 159.502 46.1172C159.19 46.7682 158.747 47.2708 158.174 47.625C157.601 47.9792 156.947 48.1562 156.213 48.1562C155.093 48.1562 154.182 47.763 153.479 46.9766C152.781 46.1849 152.432 45.138 152.432 43.8359V43.6484ZM153.369 43.9062C153.369 44.9167 153.63 45.7474 154.151 46.3984C154.677 47.0443 155.364 47.3672 156.213 47.3672C157.057 47.3672 157.739 47.0443 158.26 46.3984C158.786 45.7474 159.049 44.8906 159.049 43.8281V43.6484C159.049 43.0026 158.929 42.4115 158.69 41.875C158.45 41.3385 158.114 40.9245 157.682 40.6328C157.25 40.3359 156.755 40.1875 156.197 40.1875C155.364 40.1875 154.684 40.5156 154.158 41.1719C153.632 41.8229 153.369 42.6771 153.369 43.7344V43.9062ZM161.478 47.2109L161.893 46.6719C162.549 45.7812 162.926 44.4792 163.025 42.7656L163.174 39.5469H168.166V47.2109H169.041V50.4844H168.111V48H161.76V50.4844H160.861L160.869 47.2109H161.478ZM162.557 47.2109H167.228V40.4219H164.064L163.963 42.6172C163.869 44.6328 163.4 46.1641 162.557 47.2109ZM176.502 48C176.408 47.7344 176.348 47.3411 176.322 46.8203C175.994 47.2474 175.574 47.5781 175.064 47.8125C174.559 48.0417 174.022 48.1562 173.455 48.1562C172.642 48.1562 171.983 47.9297 171.478 47.4766C170.978 47.0234 170.728 46.4505 170.728 45.7578C170.728 44.9349 171.069 44.2839 171.752 43.8047C172.439 43.3255 173.395 43.0859 174.619 43.0859H176.314V42.125C176.314 41.5208 176.127 41.0469 175.752 40.7031C175.382 40.3542 174.84 40.1797 174.127 40.1797C173.476 40.1797 172.936 40.3464 172.509 40.6797C172.082 41.013 171.869 41.4141 171.869 41.8828L170.931 41.875C170.931 41.2031 171.244 40.6224 171.869 40.1328C172.494 39.638 173.262 39.3906 174.173 39.3906C175.116 39.3906 175.858 39.6276 176.4 40.1016C176.947 40.5703 177.228 41.2266 177.244 42.0703V46.0703C177.244 46.888 177.33 47.5 177.502 47.9062V48H176.502ZM173.564 47.3281C174.189 47.3281 174.746 47.1771 175.236 46.875C175.731 46.5729 176.09 46.1693 176.314 45.6641V43.8047H174.642C173.71 43.8151 172.981 43.987 172.455 44.3203C171.929 44.6484 171.666 45.1016 171.666 45.6797C171.666 46.1536 171.84 46.5469 172.189 46.8594C172.543 47.1719 173.002 47.3281 173.564 47.3281ZM186.525 44.0938H185.4V48H184.462V44.0938H183.345L180.22 48H179.033L182.533 43.6641L179.423 39.5469H180.556L183.329 43.2578H184.462V39.5469H185.4V43.2578H186.54L189.314 39.5469H190.462L187.337 43.6641L190.845 48H189.65L186.525 44.0938ZM198.001 48C197.907 47.7344 197.847 47.3411 197.821 46.8203C197.493 47.2474 197.074 47.5781 196.563 47.8125C196.058 48.0417 195.522 48.1562 194.954 48.1562C194.142 48.1562 193.483 47.9297 192.977 47.4766C192.477 47.0234 192.227 46.4505 192.227 45.7578C192.227 44.9349 192.569 44.2839 193.251 43.8047C193.938 43.3255 194.894 43.0859 196.118 43.0859H197.813V42.125C197.813 41.5208 197.626 41.0469 197.251 40.7031C196.881 40.3542 196.339 40.1797 195.626 40.1797C194.975 40.1797 194.436 40.3464 194.009 40.6797C193.582 41.013 193.368 41.4141 193.368 41.8828L192.431 41.875C192.431 41.2031 192.743 40.6224 193.368 40.1328C193.993 39.638 194.761 39.3906 195.673 39.3906C196.616 39.3906 197.358 39.6276 197.899 40.1016C198.446 40.5703 198.727 41.2266 198.743 42.0703V46.0703C198.743 46.888 198.829 47.5 199.001 47.9062V48H198.001ZM195.063 47.3281C195.688 47.3281 196.246 47.1771 196.735 46.875C197.23 46.5729 197.589 46.1693 197.813 45.6641V43.8047H196.142C195.209 43.8151 194.48 43.987 193.954 44.3203C193.428 44.6484 193.165 45.1016 193.165 45.6797C193.165 46.1536 193.339 46.5469 193.688 46.8594C194.043 47.1719 194.501 47.3281 195.063 47.3281ZM205.578 47.2109L205.992 46.6719C206.649 45.7812 207.026 44.4792 207.125 42.7656L207.274 39.5469H212.266V47.2109H213.141V50.4844H212.211V48H205.86V50.4844H204.961L204.969 47.2109H205.578ZM206.657 47.2109H211.328V40.4219H208.164L208.063 42.6172C207.969 44.6328 207.5 46.1641 206.657 47.2109ZM214.75 43.6484C214.75 42.8359 214.906 42.1042 215.219 41.4531C215.536 40.8021 215.982 40.2969 216.555 39.9375C217.133 39.5729 217.786 39.3906 218.516 39.3906C219.641 39.3906 220.552 39.7865 221.25 40.5781C221.948 41.3646 222.297 42.4089 222.297 43.7109V43.9062C222.297 44.724 222.138 45.4609 221.82 46.1172C221.508 46.7682 221.065 47.2708 220.492 47.625C219.919 47.9792 219.266 48.1562 218.531 48.1562C217.411 48.1562 216.5 47.763 215.797 46.9766C215.099 46.1849 214.75 45.138 214.75 43.8359V43.6484ZM215.688 43.9062C215.688 44.9167 215.948 45.7474 216.469 46.3984C216.995 47.0443 217.682 47.3672 218.531 47.3672C219.375 47.3672 220.057 47.0443 220.578 46.3984C221.104 45.7474 221.367 44.8906 221.367 43.8281V43.6484C221.367 43.0026 221.247 42.4115 221.008 41.875C220.768 41.3385 220.432 40.9245 220 40.6328C219.568 40.3359 219.073 40.1875 218.516 40.1875C217.682 40.1875 217.003 40.5156 216.477 41.1719C215.951 41.8229 215.688 42.6771 215.688 43.7344V43.9062ZM229.234 46.7344L232.593 39.5469H233.75V48H232.812V41.0625L229.562 48H228.898L225.586 40.9062V48H224.656V39.5469H225.883L229.234 46.7344ZM236.062 43.6484C236.062 42.8359 236.218 42.1042 236.531 41.4531C236.848 40.8021 237.294 40.2969 237.867 39.9375C238.445 39.5729 239.098 39.3906 239.827 39.3906C240.952 39.3906 241.864 39.7865 242.562 40.5781C243.26 41.3646 243.609 42.4089 243.609 43.7109V43.9062C243.609 44.724 243.45 45.4609 243.132 46.1172C242.82 46.7682 242.377 47.2708 241.804 47.625C241.231 47.9792 240.577 48.1562 239.843 48.1562C238.723 48.1562 237.812 47.763 237.109 46.9766C236.411 46.1849 236.062 45.138 236.062 43.8359V43.6484ZM236.999 43.9062C236.999 44.9167 237.26 45.7474 237.781 46.3984C238.307 47.0443 238.994 47.3672 239.843 47.3672C240.687 47.3672 241.369 47.0443 241.89 46.3984C242.416 45.7474 242.679 44.8906 242.679 43.8281V43.6484C242.679 43.0026 242.559 42.4115 242.32 41.875C242.08 41.3385 241.744 40.9245 241.312 40.6328C240.88 40.3359 240.385 40.1875 239.827 40.1875C238.994 40.1875 238.314 40.5156 237.788 41.1719C237.262 41.8229 236.999 42.6771 236.999 43.7344V43.9062ZM245.968 48V39.5469H249.069C250.142 39.5469 250.965 39.7396 251.538 40.125C252.111 40.5052 252.398 41.0651 252.398 41.8047C252.398 42.2266 252.27 42.6042 252.015 42.9375C251.759 43.2656 251.387 43.5052 250.898 43.6562C251.45 43.7604 251.892 43.9974 252.226 44.3672C252.564 44.737 252.733 45.1667 252.733 45.6562C252.733 46.401 252.457 46.9792 251.905 47.3906C251.358 47.7969 250.582 48 249.577 48H245.968ZM246.898 44.1094V47.2188H249.608C250.312 47.2188 250.853 47.0833 251.233 46.8125C251.614 46.5417 251.804 46.151 251.804 45.6406C251.804 45.1719 251.614 44.7995 251.233 44.5234C250.853 44.2474 250.312 44.1094 249.608 44.1094H246.898ZM246.898 43.3281H249.265C250.733 43.3073 251.468 42.8073 251.468 41.8281C251.468 41.3125 251.265 40.9375 250.858 40.7031C250.457 40.4635 249.861 40.3438 249.069 40.3438H246.898V43.3281Z" fill="white"/>
</svg>
